<svg width="30" height="30" viewBox="0 0 30 30" preserveAspectRatio='none' xmlns="http://www.w3.org/2000/svg">
<symbol id="vk">
<path d="M15 0C6.71779 0 0 6.71779 0 15C0 23.2822 6.71779 30 15 30C23.2822 30 30 23.2822 30 15C30 6.71779 23.2822 0 15 0ZM22.6074 16.6258C23.3129 17.3006 24.0491 17.9448 24.6626 18.7117C24.9387 19.0491 25.2147 19.3865 25.3988 19.7853C25.6748 20.3374 25.4294 20.9509 24.9387 20.9816H21.8712C21.0736 21.0429 20.4601 20.7362 19.908 20.184C19.4785 19.7546 19.0798 19.2945 18.681 18.8344C18.5276 18.6503 18.3436 18.4663 18.1288 18.3436C17.6994 18.0675 17.3313 18.1595 17.1166 18.589C16.8712 19.0491 16.8098 19.5399 16.7791 20.0307C16.7485 20.7669 16.5337 20.9509 15.7975 20.9816C14.2331 21.0429 12.7607 20.8282 11.411 20.0307C10.2147 19.3252 9.2638 18.3742 8.46626 17.2699C6.87117 15.1227 5.67485 12.7607 4.57055 10.3374C4.32515 9.78528 4.5092 9.5092 5.1227 9.47853C6.13497 9.44785 7.11656 9.44785 8.12883 9.47853C8.52761 9.47853 8.80368 9.72393 8.95706 10.092C9.5092 11.411 10.1534 12.6994 10.9816 13.865C11.1963 14.1718 11.4417 14.4785 11.7485 14.7239C12.1166 14.9693 12.362 14.8773 12.546 14.4785C12.638 14.2331 12.6994 13.9571 12.7301 13.681C12.8221 12.7607 12.8221 11.8405 12.6687 10.9202C12.5767 10.3067 12.2699 9.93865 11.6871 9.81595C11.3804 9.7546 11.4417 9.66258 11.5644 9.47853C11.8098 9.20245 12.0552 9.0184 12.5153 9.0184H15.9816C16.5337 9.1411 16.6564 9.35583 16.7178 9.90797V13.773C16.7178 13.9877 16.8098 14.6319 17.2086 14.7546C17.5153 14.8466 17.7301 14.6012 17.9141 14.4172C18.7423 13.5276 19.3252 12.4847 19.8773 11.411C20.1227 10.9202 20.3067 10.4294 20.5215 9.93865C20.6748 9.57055 20.8896 9.3865 21.319 9.3865H24.6626C24.7546 9.3865 24.8466 9.3865 24.9693 9.41718C25.5215 9.5092 25.6748 9.7546 25.5215 10.3067C25.2454 11.1656 24.7239 11.9018 24.2025 12.6074C23.6503 13.3742 23.0368 14.1104 22.4847 14.908C21.9325 15.6442 21.9632 16.0123 22.6074 16.6258Z"/>
</symbol>

<symbol id="fb">
<path d="M30 15C30 6.71484 23.2852 0 15 0C6.71484 0 0 6.71484 0 15C0 23.2852 6.71484 30 15 30C15.0879 30 15.1758 30 15.2637 29.9941V18.3223H12.041V14.5664H15.2637V11.8008C15.2637 8.5957 17.2207 6.84961 20.0801 6.84961C21.4512 6.84961 22.6289 6.94922 22.9688 6.99609V10.3477H21C19.4473 10.3477 19.1426 11.0859 19.1426 12.1699V14.5605H22.8633L22.377 18.3164H19.1426V29.4199C25.4121 27.6211 30 21.8496 30 15Z"/>
</symbol>

<symbol id="instagram">
<path d="M15 0C6.71484 0 0 6.71484 0 15C0 23.2852 6.71484 30 15 30C23.2852 30 30 23.2852 30 15C30 6.71484 23.2852 0 15 0ZM23.5605 18.5508C23.5195 19.4648 23.373 20.0918 23.1621 20.6426C22.7168 21.7969 21.8027 22.7168 20.6426 23.1621C20.0977 23.373 19.4707 23.5195 18.5508 23.5605C17.6309 23.6016 17.3379 23.6133 15 23.6133C12.6621 23.6133 12.3691 23.6016 11.4492 23.5605C10.5352 23.5195 9.9082 23.373 9.35742 23.1621C8.7832 22.9453 8.26172 22.6055 7.83398 22.166C7.39453 21.7383 7.05469 21.2168 6.83789 20.6426C6.62695 20.0977 6.48047 19.4707 6.43945 18.5508C6.39844 17.6309 6.38672 17.3379 6.38672 15C6.38672 12.6621 6.39844 12.3691 6.43945 11.4492C6.48047 10.5352 6.62695 9.9082 6.83789 9.35742C7.05469 8.7832 7.39453 8.26172 7.83398 7.83398C8.26172 7.39453 8.7832 7.05469 9.35742 6.83789C9.9082 6.62695 10.5293 6.48047 11.4492 6.43945C12.3691 6.39844 12.6621 6.38672 15 6.38672C17.3379 6.38672 17.6309 6.39844 18.5508 6.43945C19.4648 6.48047 20.0918 6.62695 20.6426 6.83789C21.2168 7.05469 21.7383 7.39453 22.166 7.83398C22.6055 8.26172 22.9453 8.7832 23.1621 9.35742C23.373 9.9082 23.5195 10.5293 23.5605 11.4492C23.6016 12.3691 23.6133 12.6621 23.6133 15C23.6133 17.3379 23.6016 17.6309 23.5605 18.5508Z"/>
</symbol>

<symbol id="instagram-inner" x="7" y="7">
<path d="M14.7148 2.91992C14.5742 2.54492 14.3574 2.20508 14.0703 1.92969C13.7949 1.64258 13.4551 1.42578 13.0801 1.28516C12.7754 1.16797 12.3184 1.02734 11.4805 0.986329C10.5723 0.945313 10.2969 0.933594 8 0.933594C5.69727 0.933594 5.42774 0.939454 4.51953 0.986329C3.68164 1.02734 3.22461 1.16797 2.91992 1.28516C2.54492 1.42578 2.20508 1.64258 1.92969 1.92969C1.64258 2.20508 1.42578 2.54492 1.28516 2.91992C1.16797 3.22461 1.02734 3.68164 0.986329 4.51953C0.945313 5.42773 0.933594 5.69727 0.933594 8C0.933594 10.2969 0.945313 10.5723 0.986329 11.4805C1.02734 12.3184 1.16211 12.7754 1.28516 13.0801C1.42578 13.4551 1.64258 13.7949 1.92969 14.0703C2.20508 14.3574 2.54492 14.5742 2.91992 14.7148C3.22461 14.832 3.68164 14.9727 4.51953 15.0137C5.42774 15.0547 5.69727 15.0664 8 15.0664C10.3027 15.0664 10.5723 15.0605 11.4805 15.0137C12.3184 14.9727 12.7754 14.8379 13.0801 14.7148C13.8301 14.4277 14.4277 13.8301 14.7148 13.0801C14.832 12.7754 14.9727 12.3184 15.0137 11.4805C15.0547 10.5723 15.0664 10.2969 15.0664 8C15.0664 5.69727 15.0605 5.42773 15.0137 4.51953C14.9727 3.68164 14.832 3.22461 14.7148 2.91992ZM8 12.4238C5.55664 12.4238 3.57617 10.4434 3.57617 8C3.57617 5.55664 5.55664 3.57617 8 3.57617C10.4434 3.57617 12.4238 5.55664 12.4238 8C12.4238 10.4434 10.4434 12.4238 8 12.4238ZM12.5996 4.4375C12.0312 4.4375 11.5684 3.97461 11.5684 3.40625C11.5684 2.83789 12.0312 2.375 12.5996 2.375C13.168 2.375 13.6309 2.83789 13.6309 3.40625C13.6309 3.97461 13.168 4.4375 12.5996 4.4375Z"/>
</symbol>

<symbol id="instagram-inner-circle" x="12" y="12">
<path d="M5.87109 3C5.87109 4.58789 4.58789 5.87109 3 5.87109C1.41211 5.87109 0.128906 4.58789 0.128906 3C0.128906 1.41211 1.41211 0.128906 3 0.128906C4.58789 0.128906 5.87109 1.41211 5.87109 3Z"/>
</symbol>

<symbol id="tg">
<path d="M15 30C23.2852 30 30 23.2852 30 15C30 6.71484 23.2852 0 15 0C6.71484 0 0 6.71484 0 15C0 23.2852 6.71484 30 15 30ZM6.86133 14.6777L21.3281 9.09961C22.002 8.85938 22.5879 9.26367 22.3652 10.2773L19.9043 21.8789C19.7227 22.6992 19.2305 22.9043 18.5508 22.5117L14.8008 19.7461L12.9902 21.4863C12.791 21.6855 12.6211 21.8555 12.2344 21.8555L12.498 18.041L19.4531 11.7656C19.7578 11.502 19.3828 11.3496 18.9844 11.6133L10.3945 17.0215L6.69141 15.8672C5.88867 15.6094 5.87109 15.0645 6.86133 14.6777Z"/>
</symbol>

<symbol id="phone">
<path d="M11.9741 9.29781C11.9401 9.19554 11.7242 9.04488 11.3264 8.84619C11.2186 8.78357 11.0651 8.69846 10.8664 8.59049C10.6675 8.48252 10.487 8.38303 10.3252 8.2921C10.163 8.20121 10.0111 8.11314 9.86919 8.02804C9.8465 8.01099 9.77548 7.96135 9.65617 7.87879C9.53674 7.79646 9.43602 7.73535 9.35348 7.6955C9.27112 7.65589 9.19011 7.63595 9.11055 7.63595C8.99694 7.63595 8.85503 7.71696 8.68464 7.87879C8.51425 8.04082 8.35795 8.21682 8.21598 8.40733C8.07398 8.59774 7.92339 8.77375 7.76446 8.93569C7.60529 9.09769 7.47452 9.17861 7.37237 9.17861C7.32108 9.17861 7.25714 9.16432 7.18052 9.13611C7.10392 9.10772 7.04565 9.08339 7.00565 9.06378C6.96601 9.04375 6.89798 9.00411 6.80132 8.94425C6.70448 8.88458 6.65063 8.8519 6.63929 8.84619C5.86093 8.41428 5.19337 7.91995 4.63651 7.36332C4.07982 6.80636 3.58543 6.13887 3.15363 5.36041C3.14796 5.34904 3.11521 5.29504 3.0556 5.1985C2.9959 5.10188 2.95611 5.03379 2.93623 4.99391C2.91635 4.95417 2.8922 4.89591 2.86384 4.81922C2.83548 4.74253 2.82124 4.67865 2.82124 4.62746C2.82124 4.52525 2.90223 4.3945 3.06417 4.23539C3.22608 4.07638 3.40226 3.92575 3.59253 3.78381C3.78295 3.64187 3.95895 3.48557 4.12092 3.31518C4.28283 3.1447 4.36379 3.00273 4.36379 2.88912C4.36379 2.80963 4.34391 2.72858 4.30418 2.64622C4.26441 2.56368 4.20334 2.46297 4.12092 2.34359C4.03847 2.22428 3.98877 2.15332 3.9717 2.13049C3.88656 1.98855 3.79859 1.83658 3.70758 1.67464C3.61656 1.51272 3.51722 1.33225 3.40922 1.13341C3.30131 0.934661 3.21614 0.781198 3.15357 0.673257C2.95483 0.275613 2.80429 0.0596122 2.70199 0.0256419C2.6622 0.00859706 2.6025 0 2.52303 0C2.36954 0 2.1693 0.0283583 1.92216 0.0852542C1.67494 0.14206 1.4804 0.201643 1.33834 0.26424C1.05425 0.383494 0.753144 0.730063 0.434934 1.30383C0.145171 1.8378 0.000305176 2.36631 0.000305176 2.88897C0.000305176 3.04225 0.0102455 3.19139 0.0301262 3.3364C0.0500069 3.48127 0.0855294 3.64465 0.136724 3.8265C0.187828 4.00829 0.229052 4.14333 0.260217 4.23127C0.291411 4.31928 0.34965 4.47692 0.434904 4.70426C0.520039 4.93155 0.571233 5.07068 0.588278 5.12182C0.787115 5.67866 1.02291 6.17576 1.29559 6.61329C1.74425 7.34051 2.35652 8.09207 3.13205 8.86766C3.90761 9.64318 4.65901 10.2554 5.3863 10.7043C5.82376 10.9769 6.32105 11.2127 6.8778 11.4117C6.92896 11.4286 7.0681 11.4797 7.29529 11.5651C7.52258 11.6503 7.68028 11.7086 7.76828 11.7398C7.85631 11.7711 7.99139 11.8124 8.17303 11.8636C8.35506 11.9147 8.51828 11.9503 8.66315 11.9703C8.80811 11.9899 8.95727 12 9.11059 12C9.63321 12 10.1618 11.8551 10.6958 11.5653C11.2695 11.2473 11.616 10.9461 11.7353 10.6618C11.7981 10.5199 11.8575 10.3253 11.9143 10.0781C11.9713 9.83095 11.9996 9.63074 11.9996 9.47727C11.9998 9.39748 11.9912 9.33793 11.9741 9.29781Z"/>
</symbol>


</svg>